<?xml version="1.0" encoding="UTF-8" standalone="no"?>
<!-- Created with Inkscape (http://www.inkscape.org/) -->

<svg
   version="1.1"
   id="svg1"
   width="512"
   height="512"
   viewBox="0 0 512 512"
   sodipodi:docname="MusicSorter2.svg"
   xml:space="preserve"
   inkscape:version="1.3 (0e150ed6c4, 2023-07-21)"
   inkscape:export-filename="MusicSorter2_100px.png"
   inkscape:export-xdpi="18.75"
   inkscape:export-ydpi="18.75"
   xmlns:inkscape="http://www.inkscape.org/namespaces/inkscape"
   xmlns:sodipodi="http://sodipodi.sourceforge.net/DTD/sodipodi-0.dtd"
   xmlns:xlink="http://www.w3.org/1999/xlink"
   xmlns="http://www.w3.org/2000/svg"
   xmlns:svg="http://www.w3.org/2000/svg"><defs
     id="defs1"><linearGradient
       id="linearGradient4313"
       inkscape:collect="always"><stop
         style="stop-color:#30ff30;stop-opacity:1;"
         offset="0"
         id="stop4313" /><stop
         style="stop-color:#ffffff;stop-opacity:1;"
         offset="1"
         id="stop4314" /></linearGradient><linearGradient
       inkscape:collect="always"
       xlink:href="#linearGradient4313"
       id="linearGradient4314"
       x1="134.19296"
       y1="230.47362"
       x2="134.19296"
       y2="-17.308577"
       gradientUnits="userSpaceOnUse"
       gradientTransform="matrix(2.2019242,0,0,2.2231242,-25.881222,-4.5309524)" /></defs><sodipodi:namedview
     id="namedview1"
     pagecolor="#ffffff"
     bordercolor="#666666"
     borderopacity="1.0"
     inkscape:showpageshadow="2"
     inkscape:pageopacity="0.0"
     inkscape:pagecheckerboard="0"
     inkscape:deskcolor="#d1d1d1"
     showgrid="false"
     inkscape:zoom="0.28070205"
     inkscape:cx="203.06228"
     inkscape:cy="261.84347"
     inkscape:window-width="1920"
     inkscape:window-height="1017"
     inkscape:window-x="-8"
     inkscape:window-y="32"
     inkscape:window-maximized="1"
     inkscape:current-layer="g1" /><g
     inkscape:groupmode="layer"
     inkscape:label="Image"
     id="g1"><circle
       style="fill:url(#linearGradient4314);stroke:#e4e4e4;stroke-width:6.20533;stroke-opacity:1"
       id="path535"
       cx="255.9651"
       cy="255.96512"
       r="252.93222" /><path
       style="fill:#000000"
       d="m 158.89841,386.19041 c -5.23304,-0.35216 -8.61525,-0.85756 -12.86142,-1.92189 -15.27213,-3.82805 -28.70435,-13.1177 -37.82254,-26.15786 -6.32263,-9.04214 -10.344393,-19.85638 -11.421613,-30.71182 -0.26926,-2.7135 -0.30928,-3.59445 -0.30961,-6.81579 -4e-4,-3.98331 0.13931,-6.0333 0.6561,-9.62681 2.28718,-15.90417 10.516503,-30.52466 23.065753,-40.97941 6.17411,-5.14363 13.52613,-9.22012 21.24954,-11.78229 11.95132,-3.96474 24.9381,-4.39118 37.22741,-1.22243 8.13781,2.0983 16.04827,5.91041 22.81194,10.99322 7.43593,5.58801 13.54593,12.58901 18.09195,20.73022 0.57059,1.02183 2.08959,4.04368 2.51812,5.00944 0.28491,0.64211 0.22269,0.80805 0.63533,-1.69432 3.19329,-19.36477 4.0753,-39.53445 2.62017,-59.91728 -2.38913,-33.46562 -10.93767,-67.79425 -25.37076,-101.88212 -6.14893,-14.52246 -13.69662,-29.43501 -21.25688,-41.998903 -1.30212,-2.16392 -1.5436,-2.61023 -1.43819,-2.65817 0.42073,-0.19132 8.47265,-2.302166 12.40429,-3.251836 28.42837,-6.86672 54.64438,-9.82474 76.78967,-8.66437 10.43001,0.54651 20.09177,2.07232 28.56487,4.51102 15.13612,4.35644 26.92484,11.750766 35.0747,22.000159 3.85802,4.8519 6.96968,10.44738 9.24023,16.61603 3.89932,10.59374 5.41386,23.40723 4.47855,37.8901 -1.79404,27.7801 -12.36166,62.19229 -31.78606,103.5075 -2.61785,5.5681 -9.031,18.62258 -9.10982,18.54377 -0.0173,-0.0174 0.15969,-0.56654 0.39343,-1.2204 2.1686,-6.06632 4.86889,-15.2166 6.88495,-23.3305 6.65734,-26.79341 8.32783,-49.95925 4.85377,-67.31068 -1.97399,-9.85922 -5.44332,-17.66239 -10.61475,-23.8745 -0.90074,-1.082 -2.998,-3.23067 -4.09349,-4.19382 -5.64459,-4.96271 -12.73058,-8.2149 -21.2175,-9.73802 -2.21704,-0.39788 -4.32085,-0.65189 -7.20085,-0.86939 -1.68565,-0.12731 -7.76131,-0.12729 -9.70383,3e-5 -7.62808,0.49997 -14.84832,1.66701 -23.51295,3.80049 -1.34611,0.33145 -1.89958,0.49853 -1.87382,0.56567 0.0673,0.17549 1.57807,7.82942 1.96846,9.97295 0.40867,2.24393 1.08048,6.43231 1.65529,10.31996 3.81399,25.79519 4.95232,52.27353 3.35395,78.01569 -2.06026,33.18107 -8.95788,66.46852 -18.99856,91.68576 -0.42164,1.05895 -0.9508,2.42788 -1.17591,3.04207 -2.68377,7.32242 -7.06091,14.56553 -12.54284,20.75541 -1.05419,1.19034 -3.87023,4.02159 -5.04103,5.06826 -10.18712,9.1071 -22.59699,14.76182 -35.94193,16.37741 -2.73133,0.33067 -3.96767,0.40117 -7.4319,0.42381 -1.86375,0.0122 -3.57925,0.009 -3.81222,-0.006 z"
       id="path4" /><path
       d="m 274.66821,208.16773 v 34.67407 h 69.34814 v -34.67407 z m 0,69.34814 v 34.67407 h 104.02221 v -34.67407 z m 0,69.34815 v 34.67408 h 138.69628 v -34.67408 z"
       id="path1"
       style="stroke-width:34.6741"
       sodipodi:nodetypes="ccccccccccccccc" /></g></svg>
