<?xml version="1.0" encoding="utf-8"?>
<!-- Generator: Adobe Illustrator 24.0.3, SVG Export Plug-In . SVG Version: 6.00 Build 0)  -->
<!DOCTYPE svg PUBLIC "-//W3C//DTD SVG 1.1//EN" "http://www.w3.org/Graphics/SVG/1.1/DTD/svg11.dtd" [
	<!ENTITY ns_extend "http://ns.adobe.com/Extensibility/1.0/">
	<!ENTITY ns_ai "http://ns.adobe.com/AdobeIllustrator/10.0/">
	<!ENTITY ns_graphs "http://ns.adobe.com/Graphs/1.0/">
	<!ENTITY ns_vars "http://ns.adobe.com/Variables/1.0/">
	<!ENTITY ns_imrep "http://ns.adobe.com/ImageReplacement/1.0/">
	<!ENTITY ns_sfw "http://ns.adobe.com/SaveForWeb/1.0/">
	<!ENTITY ns_custom "http://ns.adobe.com/GenericCustomNamespace/1.0/">
	<!ENTITY ns_adobe_xpath "http://ns.adobe.com/XPath/1.0/">
]>
<svg version="1.1" id="Layer_1" xmlns:x="&ns_extend;" xmlns:i="&ns_ai;" xmlns:graph="&ns_graphs;"
	 xmlns="http://www.w3.org/2000/svg" xmlns:xlink="http://www.w3.org/1999/xlink" x="0px" y="0px" viewBox="0 0 1792 1600"
	 style="enable-background:new 0 0 1792 1600;" xml:space="preserve">
<metadata>
	<sfw  xmlns="&ns_sfw;">
		<slices></slices>
		<sliceSourceBounds  bottomLeftOrigin="true" height="1600" width="1792" x="0" y="-96"></sliceSourceBounds>
	</sfw>
</metadata>
<path d="M666,449c-56,86-97,179-137,273c-58-121-122-242-273-242H32c-18,0-32-14-32-32V256c0-18,14-32,32-32h224
	C434,224,565,307,666,449z M1792,1248c0,8-3,17-9,23l-320,320c-6,6-15,9-23,9c-17,0-32-15-32-32v-192c-297,0-480,35-665-225
	c55-86,96-179,136-273c58,121,122,242,273,242h256V928c0-18,14-32,32-32c9,0,17,4,24,10l319,319C1789,1231,1792,1240,1792,1248z
	 M1792,352c0,8-3,17-9,23l-320,320c-6,6-15,9-23,9c-17,0-32-14-32-32V480h-256c-133,0-196,91-252,199c-29,56-54,114-78,171
	c-111,258-241,526-566,526H32c-18,0-32-14-32-32v-192c0-18,14-32,32-32h224c133,0,196-91,252-199c29-56,54-114,78-171
	c111-258,241-526,566-526h256V32c0-18,14-32,32-32c9,0,17,4,24,10l319,319C1789,335,1792,344,1792,352z"/>
</svg>
